<mxfile host="app.diagrams.net" modified="2023-04-18T16:24:01.208Z" agent="Mozilla/5.0 (Windows NT 10.0; Win64; x64) AppleWebKit/537.36 (KHTML, like Gecko) Chrome/112.0.0.0 Safari/537.36 Edg/112.0.1722.48" version="21.1.8" etag="OQ_qVh34mrcs4567OIAR" type="device">
  <diagram id="pCTMBsWfFFg7g4Bz8OoT" name="Page-1">
    <mxGraphModel dx="2287" dy="1356" grid="1" gridSize="10" guides="1" tooltips="1" connect="1" arrows="1" fold="1" page="1" pageScale="1" pageWidth="850" pageHeight="1100" math="0" shadow="0">
      <root>
        <mxCell id="0" />
        <mxCell id="1" parent="0" />
        <mxCell id="8WUqX0Ghef32OuJRJESN-2" value="&lt;blockquote style=&quot;margin: 0 0 0 40px; border: none; padding: 0px;&quot;&gt;&lt;font style=&quot;font-size: 18px;&quot;&gt;AECQ&lt;/font&gt;&lt;/blockquote&gt;" style="rounded=0;whiteSpace=wrap;html=1;verticalAlign=top;align=left;labelPosition=center;verticalLabelPosition=middle;" vertex="1" parent="1">
          <mxGeometry x="210" y="50" width="430" height="1010" as="geometry" />
        </mxCell>
        <mxCell id="8WUqX0Ghef32OuJRJESN-4" value="SINC" style="ellipse;whiteSpace=wrap;html=1;aspect=fixed;fontSize=18;" vertex="1" parent="1">
          <mxGeometry x="520" y="970" width="60" height="60" as="geometry" />
        </mxCell>
        <mxCell id="8WUqX0Ghef32OuJRJESN-5" value="BLOQ" style="ellipse;whiteSpace=wrap;html=1;aspect=fixed;fontSize=18;" vertex="1" parent="1">
          <mxGeometry x="270" y="970" width="60" height="60" as="geometry" />
        </mxCell>
        <mxCell id="8WUqX0Ghef32OuJRJESN-6" value="P-MAN" style="ellipse;whiteSpace=wrap;html=1;aspect=fixed;fontSize=17;" vertex="1" parent="1">
          <mxGeometry x="520" y="880" width="60" height="60" as="geometry" />
        </mxCell>
        <mxCell id="8WUqX0Ghef32OuJRJESN-7" value="P-AUTO" style="ellipse;whiteSpace=wrap;html=1;aspect=fixed;fontSize=17;" vertex="1" parent="1">
          <mxGeometry x="270" y="880" width="60" height="60" as="geometry" />
        </mxCell>
        <mxCell id="8WUqX0Ghef32OuJRJESN-12" value="AMRL" style="ellipse;whiteSpace=wrap;html=1;aspect=fixed;fontSize=18;" vertex="1" parent="1">
          <mxGeometry x="520" y="770" width="60" height="60" as="geometry" />
        </mxCell>
        <mxCell id="8WUqX0Ghef32OuJRJESN-13" value="AMRL" style="ellipse;whiteSpace=wrap;html=1;aspect=fixed;fontSize=18;" vertex="1" parent="1">
          <mxGeometry x="270" y="770" width="60" height="60" as="geometry" />
        </mxCell>
        <mxCell id="8WUqX0Ghef32OuJRJESN-14" value="ROJA" style="ellipse;whiteSpace=wrap;html=1;aspect=fixed;fontSize=17;" vertex="1" parent="1">
          <mxGeometry x="520" y="680" width="60" height="60" as="geometry" />
        </mxCell>
        <mxCell id="8WUqX0Ghef32OuJRJESN-15" value="ROJA" style="ellipse;whiteSpace=wrap;html=1;aspect=fixed;fontSize=17;" vertex="1" parent="1">
          <mxGeometry x="270" y="680" width="60" height="60" as="geometry" />
        </mxCell>
        <mxCell id="8WUqX0Ghef32OuJRJESN-16" value="PRIOD" style="ellipse;whiteSpace=wrap;html=1;aspect=fixed;fontSize=17;" vertex="1" parent="1">
          <mxGeometry x="395" y="600" width="60" height="60" as="geometry" />
        </mxCell>
        <mxCell id="8WUqX0Ghef32OuJRJESN-17" value="-" style="ellipse;whiteSpace=wrap;html=1;aspect=fixed;fontSize=55;verticalAlign=bottom;" vertex="1" parent="1">
          <mxGeometry x="520" y="509" width="60" height="60" as="geometry" />
        </mxCell>
        <mxCell id="8WUqX0Ghef32OuJRJESN-18" value="-" style="ellipse;whiteSpace=wrap;html=1;aspect=fixed;fontSize=55;verticalAlign=bottom;" vertex="1" parent="1">
          <mxGeometry x="270" y="509" width="60" height="60" as="geometry" />
        </mxCell>
        <mxCell id="8WUqX0Ghef32OuJRJESN-19" value="+" style="ellipse;whiteSpace=wrap;html=1;aspect=fixed;fontSize=55;" vertex="1" parent="1">
          <mxGeometry x="520" y="420" width="60" height="60" as="geometry" />
        </mxCell>
        <mxCell id="8WUqX0Ghef32OuJRJESN-20" value="+" style="ellipse;whiteSpace=wrap;html=1;aspect=fixed;fontSize=55;" vertex="1" parent="1">
          <mxGeometry x="270" y="420" width="60" height="60" as="geometry" />
        </mxCell>
        <mxCell id="8WUqX0Ghef32OuJRJESN-21" value="1 MIN&amp;nbsp;" style="ellipse;whiteSpace=wrap;html=1;aspect=fixed;fontSize=17;" vertex="1" parent="1">
          <mxGeometry x="270" y="310" width="60" height="60" as="geometry" />
        </mxCell>
        <mxCell id="8WUqX0Ghef32OuJRJESN-22" value="3 MIN" style="ellipse;whiteSpace=wrap;html=1;aspect=fixed;fontSize=17;" vertex="1" parent="1">
          <mxGeometry x="520" y="310" width="60" height="60" as="geometry" />
        </mxCell>
        <mxCell id="8WUqX0Ghef32OuJRJESN-23" value="CICLO" style="ellipse;whiteSpace=wrap;html=1;aspect=fixed;fontSize=17;" vertex="1" parent="1">
          <mxGeometry x="395" y="200" width="60" height="60" as="geometry" />
        </mxCell>
        <mxCell id="8WUqX0Ghef32OuJRJESN-24" value="^" style="ellipse;whiteSpace=wrap;html=1;aspect=fixed;fontSize=50;verticalAlign=top;" vertex="1" parent="1">
          <mxGeometry x="270" y="200" width="60" height="60" as="geometry" />
        </mxCell>
        <mxCell id="8WUqX0Ghef32OuJRJESN-26" value="^" style="ellipse;whiteSpace=wrap;html=1;aspect=fixed;fontSize=50;verticalAlign=top;direction=west;rotation=180;" vertex="1" parent="1">
          <mxGeometry x="520" y="200" width="60" height="60" as="geometry" />
        </mxCell>
        <mxCell id="8WUqX0Ghef32OuJRJESN-27" value="SUBIR" style="ellipse;whiteSpace=wrap;html=1;aspect=fixed;fontSize=17;" vertex="1" parent="1">
          <mxGeometry x="395" y="90" width="60" height="60" as="geometry" />
        </mxCell>
        <mxCell id="8WUqX0Ghef32OuJRJESN-28" value="RESET" style="ellipse;whiteSpace=wrap;html=1;aspect=fixed;fontSize=17;verticalAlign=middle;" vertex="1" parent="1">
          <mxGeometry x="270" y="90" width="60" height="60" as="geometry" />
        </mxCell>
        <mxCell id="8WUqX0Ghef32OuJRJESN-29" value="II / &amp;gt;" style="ellipse;whiteSpace=wrap;html=1;aspect=fixed;fontSize=25;verticalAlign=middle;direction=west;rotation=0;" vertex="1" parent="1">
          <mxGeometry x="520" y="90" width="60" height="60" as="geometry" />
        </mxCell>
      </root>
    </mxGraphModel>
  </diagram>
</mxfile>
